<?xml version="1.0" encoding="UTF-8" standalone="no"?>
<!-- Created with Inkscape (http://www.inkscape.org/) -->

<svg
   width="12.490998mm"
   height="17.746927mm"
   viewBox="0 0 12.490998 17.746927"
   version="1.1"
   id="svg35035"
   xmlns="http://www.w3.org/2000/svg"
   xmlns:svg="http://www.w3.org/2000/svg">
  <defs
     id="defs35032">
    <clipPath
       clipPathUnits="userSpaceOnUse"
       id="clipPath3630-67-6-8-5-2-3">
      <path
         d="M 0,500 H 750 V 0 H 0 Z"
         id="path3628-5-4-2-3-31-6" />
    </clipPath>
    <clipPath
       clipPathUnits="userSpaceOnUse"
       id="clipPath1724-5-6-9-6-3-8-7">
      <path
         d="M 0,500 H 750 V 0 H 0 Z"
         id="path1722-5-2-73-0-8-3-5" />
    </clipPath>
    <clipPath
       clipPathUnits="userSpaceOnUse"
       id="clipPath1724-5-6-36-6-6-3-4-3">
      <path
         d="M 0,500 H 750 V 0 H 0 Z"
         id="path1722-5-2-7-1-6-7-2-5" />
    </clipPath>
  </defs>
  <g
     id="layer1"
     transform="translate(-13.297047,-8.1200607)">
    <g
       id="g765"
       transform="translate(-70.081833,43.449638)">
      <g
         id="g39699-2-9"
         transform="matrix(1.1106901,0,0,1.1106901,61.8175,-333.16959)"
         style="display:inline">
        <g
           id="g39478-9-45-1"
           transform="translate(3.2852179,49.981843)">
          <g
             id="g3951-38-4-3-1-2"
             transform="translate(10.849653,205.61525)"
             style="display:inline">
            <g
               id="g4672-3-0-6-7-7-7"
               style="display:inline;fill:#ffffff"
               transform="matrix(0.2260367,0,0,-0.2260367,-15.567079,87.948224)" />
            <g
               id="g3624-6-5-2-8-5-0"
               style="display:inline"
               transform="matrix(0.2260367,0,0,-0.2260367,-11.269279,90.845701)" />
            <g
               id="g35389-9-4-6-3">
              <g
                 id="g3626-2-64-6-1-9-6"
                 clip-path="url(#clipPath3630-67-6-8-5-2-3)"
                 style="display:inline"
                 transform="matrix(0.24801193,-0.05904505,-0.05904505,-0.24801193,-20.951639,113.69182)">
                <g
                   id="g3632-9-0-0-9-81-0"
                   transform="translate(228.7682,317.8274)">
                  <path
                     d="M -2.7482642,-1.6972789 C -3.4755178,-13.854546 -13.920514,-23.121373 -26.078779,-22.394059 -38.236046,-21.666806 -47.501814,-11.220872 -46.774561,0.93639557 -46.047307,13.093663 -35.602311,22.360489 -23.445045,21.633236 -11.286779,20.905922 -2.0210105,10.459989 -2.7482642,-1.6972789"
                     style="fill:#b8e3ff;fill-opacity:1;fill-rule:nonzero;stroke:none"
                     id="path3634-1-0-7-0-3-6" />
                </g>
                <g
                   id="g3636-27-4-0-9-3-2"
                   transform="translate(188.0128,319.5957)">
                  <path
                     d="M -2.569946,0.73322307 C -2.659661,0.15454767 -2.7287121,-0.43037283 -2.7643612,-1.0263076 -3.38413,-11.386787 4.5114857,-20.287145 14.871965,-20.906915 c 10.359481,-0.619709 19.260838,7.275847 19.880607,17.6363263 0.03565,0.5959346 0.03582,1.1849754 0.01673,1.7701597 z"
                     style="fill:#ffec85;fill-opacity:1;fill-rule:nonzero;stroke:none"
                     id="path3638-0-6-1-8-3-6" />
                </g>
                <g
                   id="g3640-93-2-0-8-7-1"
                   transform="translate(225.5075,319.5957)">
                  <path
                     d="m -2.6368538,-1.5057257 c -0.2028475,-3.3909382 -8.7562432,-5.6371914 -19.1047432,-5.018139 -10.347502,0.6189927 -18.572114,3.8689142 -18.369266,7.25985247 0.202788,3.38993993 8.756242,5.63719143 19.103745,5.01819873 10.348501,-0.6190524 18.5730521,-3.8699721 18.3702642,-7.2599122"
                     style="fill:#fff5b8;fill-opacity:1;fill-rule:nonzero;stroke:none"
                     id="path3642-6-67-1-5-9-8" />
                </g>
                <path
                   d="m 211.82671,351.93617 -11.47249,0.6863 -1.0595,-17.71134 11.47249,-0.68629 z"
                   style="fill:#b8e3ff;fill-opacity:1;fill-rule:nonzero;stroke:none"
                   id="path3644-0-5-3-8-8-7" />
                <g
                   id="g3646-6-6-7-4-6-9"
                   transform="translate(214.1188,355.9776)">
                  <path
                     d="m -0.44403182,-0.89058563 -1.44154758,-0.00853 C -2.8952705,-2.767177 -6.3167868,-3.2123107 -8.6516132,-3.0726403 c -2.5165008,0.1505384 -4.7550938,1.0567814 -5.2663128,2.77068147 l -1.340604,0.080196 -0.103663,-1.73290227 c -0.100199,-1.6750057 3.136658,-3.2310672 7.2303403,-3.4759532 4.0926837,-0.2448263 7.49196276,0.9142583 7.59216241,2.5892639 z"
                     style="fill:#b8e3ff;fill-opacity:1;fill-rule:nonzero;stroke:none"
                     id="path3648-2-9-7-3-70-2" />
                </g>
                <g
                   id="g3650-6-87-2-7-48-0"
                   transform="translate(214.1402,355.7606)">
                  <path
                     id="path3652-18-2-6-1-4-2"
                     style="fill:#b8e3ff;fill-opacity:1;fill-rule:nonzero;stroke:none"
                     d="m -4.8159159,2.1726582 c -0.877563,0.2064897 -1.8475146,0.3514002 -2.8709341,0.4126217 -4.092679,0.2448261 -7.492605,-0.9158873 -7.592805,-2.59089124 -0.100199,-1.67500406 3.137241,-3.23083996 7.2299213,-3.47566596 4.0936782,-0.2448858 7.49213612,0.9139151 7.59233567,2.58891931 0.0751497,1.25625294 -1.72582907,2.44554739 -4.35851787,3.06501619 z m -0.5976493,-0.497389 c 2.1182077,-0.4664118 3.5715031,-1.34681064 3.5162381,-2.27065814 -0.073687,-1.23179686 -2.8009032,-2.07217516 -6.0910183,-1.87535886 -3.2911136,0.196876 -5.9002876,1.355531 -5.8266006,2.58732775 0.07369,1.23179665 2.801408,2.06979355 6.092521,1.87291755 0.8225288,-0.049204 1.6027905,-0.1587577 2.3088598,-0.3142283 z" />
                </g>
                <g
                   id="g3654-7-8-4-3-8-3"
                   transform="translate(212.685,355.9692)" />
              </g>
            </g>
          </g>
          <g
             id="g5229-9-9-5-2"
             transform="translate(9.4373666,205.95859)">
            <g
               id="g46387-2-2-0-9-2-2"
               transform="matrix(0.19359018,0,0,-0.19359018,-3.2435106,87.072612)"
               style="display:inline;stroke:#544efb;stroke-opacity:1">
              <g
                 aria-label="I"
                 transform="matrix(1.3667188,0,0,-0.26332669,-751.98232,384.59267)"
                 id="text46743-9-9-3-1-8"
                 style="font-weight:bold;font-size:79.2268px;font-family:'LEMON MILK';-inkscape-font-specification:'LEMON MILK Bold';text-align:center;white-space:pre;shape-inside:url(#rect46745);display:none;fill:#544efb;stroke:none;stroke-width:3.57165;stroke-linejoin:round;paint-order:stroke fill markers;stop-color:#000000">
                <path
                   d="m 733.06712,296.31448 h 16.55716 v -62.36015 h -16.55716 z"
                   id="path3465-3-9-2-9-9" />
              </g>
              <g
                 id="g1718-2-2-1-4-4-9-7"
                 style="display:inline;stroke:#544efb;stroke-width:2.55178;stroke-dasharray:none;stroke-opacity:1"
                 transform="translate(-36.97065,-10.940264)">
                <g
                   id="g1720-9-6-9-5-3-6-3"
                   clip-path="url(#clipPath1724-5-6-9-6-3-8-7)"
                   style="display:inline;stroke:#544efb;stroke-width:2.55178;stroke-dasharray:none;stroke-opacity:1"
                   transform="rotate(3.2729994,189.34792,707.71486)">
                  <g
                     id="g1726-0-4-4-1-7-06-6"
                     transform="translate(287.5736,348.9073)"
                     style="stroke:#544efb;stroke-width:2.55178;stroke-dasharray:none;stroke-opacity:1" />
                  <g
                     id="g1730-2-7-0-1-4-1"
                     transform="translate(279.4127,341.686)"
                     style="stroke:#544efb;stroke-width:2.55178;stroke-dasharray:none;stroke-opacity:1">
                    <g
                       id="g46830-8-3-2-9-2"
                       transform="translate(27.700018,-2.7440827)"
                       style="stroke-width:2.55178;stroke-dasharray:none" />
                  </g>
                  <g
                     id="g1734-8-8-5-8-0-8-3"
                     transform="translate(284.3161,360.8153)"
                     style="stroke:#544efb;stroke-width:2.55178;stroke-dasharray:none;stroke-opacity:1" />
                  <g
                     id="g1738-3-2-0-8-2-9-1"
                     transform="translate(282.4149,352.4573)"
                     style="stroke:#544efb;stroke-width:2.55178;stroke-dasharray:none;stroke-opacity:1" />
                </g>
              </g>
              <g
                 id="g4205-3-60-1-3-9"
                 transform="matrix(-1,0,0,1,530.53902,1.0960112)"
                 style="display:inline;stroke-width:2.55178;stroke-dasharray:none">
                <g
                   id="g1718-2-2-5-6-4-7-1-4"
                   style="display:inline;stroke:#544efb;stroke-width:2.55178;stroke-dasharray:none;stroke-opacity:1"
                   transform="translate(-30.035221,-12.036275)">
                  <g
                     id="g1720-9-6-3-1-6-5-4-7"
                     clip-path="url(#clipPath1724-5-6-36-6-6-3-4-3)"
                     style="stroke:#544efb;stroke-width:2.55178;stroke-dasharray:none;stroke-opacity:1"
                     transform="rotate(3.2729994,189.34792,707.71486)">
                    <g
                       id="g1726-0-4-5-0-7-1-8-8"
                       transform="translate(287.5736,348.9073)"
                       style="stroke:#544efb;stroke-width:2.55178;stroke-dasharray:none;stroke-opacity:1" />
                    <g
                       id="g1730-2-6-6-6-7-9-4"
                       transform="translate(279.4127,341.686)"
                       style="stroke:#544efb;stroke-width:2.55178;stroke-dasharray:none;stroke-opacity:1">
                      <g
                         id="g46830-2-3-0-4-6-5"
                         transform="translate(27.700018,-2.7440827)"
                         style="stroke-width:2.55178;stroke-dasharray:none" />
                    </g>
                    <g
                       id="g1734-8-8-1-0-75-7-7-3"
                       transform="translate(284.3161,360.8153)"
                       style="stroke:#544efb;stroke-width:2.55178;stroke-dasharray:none;stroke-opacity:1" />
                    <g
                       id="g1738-3-2-2-6-9-1-3-6"
                       transform="translate(282.4149,352.4573)"
                       style="stroke:#544efb;stroke-width:2.55178;stroke-dasharray:none;stroke-opacity:1" />
                  </g>
                </g>
              </g>
            </g>
          </g>
        </g>
      </g>
    </g>
  </g>
</svg>
