<?xml version="1.0" encoding="UTF-8"?>
<svg id="Layer_1" xmlns="http://www.w3.org/2000/svg" viewBox="0 0 1752.22 660.44">
   
    <path fill="#ffffff" d="m291.84,157.75h-1.74c-2.47-5.51-6.08-11.11-10.82-16.84-4.75-5.7-10.95-10.48-18.61-14.34-7.66-3.86-17.22-5.79-28.65-5.79-14.97,0-28.74,3.89-41.27,11.65-12.54,7.75-22.57,19.4-30.1,34.94-7.53,15.54-11.3,35.04-11.3,58.43s3.64,41.97,10.95,57.61c7.31,15.64,17.25,27.47,29.78,35.51,12.54,8.01,26.56,12.03,42.07,12.03,10.98,0,20.32-1.84,27.98-5.48,7.66-3.61,13.93-8.2,18.74-13.74,4.84-5.54,8.58-11.14,11.24-16.81h2.41v32.7h55.8V55.39h-56.47v102.36Zm-3.92,99.55c-3.42,9.05-8.29,16.08-14.62,21.08-6.33,5-14.08,7.5-23.2,7.5s-17.12-2.53-23.46-7.63c-6.33-5.1-11.17-12.19-14.5-21.27-3.32-9.08-5-19.56-5-31.46s1.65-22.16,4.94-31.08c3.26-8.96,8.1-15.95,14.5-21.02,6.36-5.03,14.21-7.57,23.52-7.57s16.87,2.44,23.26,7.31c6.36,4.87,11.24,11.77,14.62,20.73,3.35,8.96,5.03,19.5,5.03,31.62s-1.68,22.73-5.1,31.78Z" />
    <path fill="#ffffff" d="m530.28,228.73c-9.75-9.05-24.53-15.6-44.41-19.69l-36.94-7.44c-9.5-2.03-16.17-4.75-20.07-8.1-3.92-3.39-5.86-7.5-5.86-12.38,0-6.11,3.01-11.01,9.05-14.69,6.01-3.67,13.42-5.51,22.19-5.51,6.55,0,12.19,1.08,16.93,3.26,4.75,2.15,8.58,5.03,11.52,8.64,2.91,3.58,4.81,7.6,5.7,12.03l51.85-3.2c-2.47-18.8-11.14-33.61-25.99-44.53-14.84-10.89-35.17-16.33-60.96-16.33-17.44,0-32.67,2.56-45.64,7.69-12.98,5.16-23.04,12.47-30.16,21.93-7.15,9.5-10.7,20.8-10.7,33.9,0,15.26,4.84,27.79,14.53,37.6,9.72,9.84,24.53,16.78,44.47,20.76l35.36,7.03c8.86,1.77,15.41,4.34,19.69,7.66,4.24,3.32,6.43,7.53,6.52,12.69-.09,6.11-3.2,11.08-9.24,14.94-6.08,3.86-14.09,5.79-23.99,5.79s-18.39-2.15-24.88-6.46c-6.46-4.31-10.54-10.57-12.22-18.8l-55.71,2.91c2.75,19.5,12.12,34.91,28.14,46.21,15.98,11.3,37.51,16.93,64.51,16.93,17.73,0,33.39-2.82,47-8.42,13.61-5.63,24.34-13.52,32.16-23.61,7.85-10.1,11.77-21.84,11.77-35.23,0-14.72-4.87-26.59-14.62-35.61Z" />
    <path fill="#ffffff" d="m659.26,284.09c-2.66.48-5.32.73-7.98.73-3.83,0-7.15-.57-10.03-1.74-2.88-1.14-5.13-3.17-6.71-6.05-1.61-2.88-2.41-6.93-2.41-12.15v-98.91h38.43v-42.54h-38.43v-48.9h-56.62v48.9h-27.92v42.54h27.92v106.35c-.1,13.39,2.69,24.47,8.39,33.23,5.67,8.77,13.61,15.26,23.83,19.4,10.26,4.18,22.19,5.98,35.83,5.44,7.38-.25,13.61-.98,18.74-2.18,5.16-1.2,9.15-2.25,11.97-3.13l-8.89-42.13c-1.42.25-3.45.63-6.11,1.14Z" />
    <path fill="#ffffff" d="m835.15,155.87h-3.2c-2.31-3.54-5.57-8.07-9.78-13.61-4.21-5.54-10.22-10.51-18.07-14.91-7.85-4.37-18.42-6.58-31.71-6.58-17.19,0-32.35,4.3-45.45,12.85-13.1,8.55-23.36,20.6-30.7,36.15-7.34,15.54-11.05,33.77-11.05,54.69s3.8,39.34,11.4,54.25c7.56,14.88,17.88,26.21,30.96,34.03,13.07,7.79,27.85,11.68,44.34,11.68,13.29,0,23.83-2.09,31.68-6.3,7.85-4.21,13.86-9.05,18.07-14.5,4.21-5.44,7.47-10.03,9.78-13.77h2.66v41.5c0,17-5.35,29.5-16.08,37.48-10.73,7.98-24.34,11.96-40.8,11.96-12.34,0-22.28-1.8-29.85-5.38-7.6-3.61-13.55-7.82-17.88-12.63-4.34-4.84-7.94-9.12-10.76-12.82l-25,17.53c4.27,7.09,10,13.77,17.22,20,7.22,6.24,16.3,11.3,27.19,15.16,10.89,3.86,23.93,5.76,39.09,5.76,16.3,0,31.11-2.56,44.44-7.75,13.36-5.19,23.99-13.29,31.91-24.34,7.95-11.02,11.9-25.32,11.9-42.86V123.42h-30.29v32.44Zm-7.31,106.89c-4.52,10.79-11.14,19.09-19.81,24.85-8.67,5.76-19.31,8.64-31.9,8.64s-24.09-3.07-32.89-9.24c-8.83-6.14-15.48-14.65-19.94-25.51-4.49-10.86-6.71-23.39-6.71-37.57s2.18-26.4,6.55-37.73c4.4-11.36,11.01-20.38,19.81-27.13,8.83-6.74,19.88-10.1,33.17-10.1s23.48,3.2,32.16,9.56c8.71,6.39,15.26,15.19,19.69,26.46,4.43,11.24,6.65,24.25,6.65,38.93s-2.28,28.01-6.78,38.84Z" />
    <path fill="#ffffff" d="m989.77,120.26c-12.25,0-23.23,3.13-32.98,9.43s-16.49,14.5-20.19,24.59h-2.15v-30.86h-30.29v204.19h31.37v-129.2c0-9.21,2.25-17.44,6.71-24.66,4.5-7.22,10.6-12.88,18.36-17.03,7.75-4.11,16.59-6.17,26.52-6.17,4.15,0,8.1.29,11.87.85,3.77.6,6.2,1.01,7.25,1.27v-31.91c-1.77-.16-4.37-.29-7.85-.38-3.45-.09-6.33-.13-8.61-.13Z" />
    <path fill="#ffffff" d="m1149.76,133.94c-13.86-8.77-30.04-13.17-48.46-13.17s-34.6,4.4-48.46,13.17c-13.86,8.77-24.69,21.08-32.41,36.97-7.75,15.86-11.65,34.41-11.65,55.68s3.89,39.53,11.65,55.3c7.72,15.8,18.55,28.04,32.41,36.84,13.86,8.77,30.04,13.14,48.46,13.14s34.59-4.37,48.46-13.14c13.87-8.8,24.66-21.05,32.41-36.84,7.75-15.76,11.65-34.18,11.65-55.3s-3.89-39.82-11.65-55.68c-7.75-15.89-18.55-28.2-32.41-36.97Zm6.17,130.66c-4.33,11.71-11.01,21.14-20.07,28.33-9.05,7.19-20.57,10.76-34.56,10.76s-25.51-3.58-34.56-10.76c-9.05-7.18-15.73-16.62-20.07-28.33-4.34-11.68-6.52-24.37-6.52-38.01s2.18-26.37,6.52-38.14c4.34-11.77,11.01-21.3,20.07-28.58,9.05-7.28,20.57-10.89,34.56-10.89s25.51,3.61,34.56,10.89c9.05,7.28,15.73,16.81,20.07,28.58,4.34,11.77,6.52,24.5,6.52,38.14s-2.18,26.33-6.52,38.01Z" />
    <path fill="#ffffff" d="m1351.63,293.04v34.56h31.37V123.45h-31.37v120.69c0,12.76-2.79,23.26-8.29,31.49-5.54,8.26-12.38,14.37-20.48,18.36-8.1,3.99-16.08,5.98-23.86,5.98-13.04,0-23.74-4.43-32.09-13.29-8.39-8.86-12.57-20.73-12.57-35.64v-127.59h-31.37v129.74c0,17.35,2.82,31.75,8.51,43.11,5.67,11.4,13.45,19.91,23.39,25.54,9.91,5.63,21.27,8.42,34.02,8.42,15.41,0,28.17-3.61,38.27-10.82,10.13-7.22,17.57-16.02,22.35-26.4h2.12Z" />
    <path fill="#ffffff" d="m1560.36,318.9c13.01-8.64,23.2-20.86,30.58-36.68,7.34-15.83,11.02-34.53,11.02-56.15s-3.67-40.07-11.02-55.83c-7.37-15.76-17.6-27.95-30.7-36.56-13.13-8.58-28.3-12.88-45.48-12.88-13.29,0-23.8,2.18-31.56,6.58-7.75,4.37-13.71,9.34-17.82,14.88-4.12,5.54-7.31,10.07-9.62,13.61h-3.73v-32.41h-30.29v280.72h31.37v-107.93h2.66c2.31,3.74,5.57,8.39,9.81,14.02,4.27,5.63,10.35,10.64,18.23,15.03,7.88,4.37,18.39,6.58,31.49,6.58,17.03,0,32.03-4.34,45.07-12.98Zm-81.22-25.13c-8.71-6.58-15.29-15.76-19.81-27.51-4.53-11.74-6.77-25.32-6.77-40.74s2.21-28.61,6.65-40.07c4.43-11.49,10.98-20.45,19.66-26.87,8.7-6.43,19.43-9.62,32.19-9.62s24.34,3.39,33.17,10.16c8.8,6.77,15.41,15.95,19.78,27.54,4.4,11.55,6.58,24.5,6.58,38.87s-2.25,27.73-6.71,39.53c-4.46,11.84-11.11,21.24-19.94,28.2-8.8,6.96-19.78,10.41-32.89,10.41s-23.23-3.29-31.91-9.91Z" />
    <path fill="#ffffff" d="m742.91,513.29c-4.34-2.79-9.24-4.18-14.75-4.18-4.21,0-7.63.7-10.19,2.12-2.56,1.39-4.59,3.04-6.01,4.87-1.46,1.87-2.56,3.51-3.32,4.94h-.82v-33.74h-13.23v90.81h12.95v-10.6h1.11c.79,1.46,1.93,3.1,3.42,4.97,1.46,1.87,3.51,3.48,6.14,4.87,2.6,1.39,5.98,2.09,10.13,2.09,5.48,0,10.38-1.42,14.66-4.24,4.3-2.82,7.66-6.87,10.13-12.09,2.44-5.25,3.67-11.55,3.67-18.93s-1.23-13.64-3.7-18.9c-2.47-5.22-5.86-9.21-10.16-12Zm-1.58,43.05c-1.39,3.64-3.39,6.52-6.05,8.64-2.66,2.09-5.98,3.17-9.94,3.17s-7.06-1.01-9.69-3.04c-2.63-2.03-4.62-4.84-6.01-8.45-1.39-3.61-2.09-7.82-2.09-12.6s.66-8.86,2.03-12.41c1.36-3.54,3.39-6.33,6.01-8.29,2.66-1.99,5.89-2.98,9.75-2.98s7.31,1.04,10,3.1c2.66,2.06,4.68,4.91,6.01,8.48,1.36,3.58,2.03,7.6,2.03,12.09s-.7,8.64-2.06,12.28Z" />
    <path fill="#ffffff" d="m814.77,549.87c.03,3.86-.76,7.06-2.41,9.59-1.65,2.5-3.7,4.37-6.17,5.6-2.47,1.27-4.94,1.87-7.44,1.87-4.08,0-7.44-1.36-10-4.11-2.6-2.75-3.86-6.46-3.86-11.08v-41.72h-13.26v43.3c0,5.63.95,10.35,2.85,14.15,1.93,3.83,4.56,6.68,7.91,8.64,3.35,1.93,7.22,2.88,11.58,2.88,5.13,0,9.4-1.2,12.85-3.61,3.42-2.41,5.95-5.41,7.5-9.05h.7v11.77h13.04v-68.08h-13.29v39.85Z" />
    <path fill="#ffffff" d="m852.54,483.68c-2.31,0-4.27.76-5.92,2.31-1.65,1.55-2.44,3.42-2.44,5.6s.79,4.02,2.44,5.57c1.65,1.55,3.61,2.34,5.92,2.34s4.27-.79,5.92-2.34c1.65-1.55,2.47-3.42,2.47-5.6s-.82-4.02-2.47-5.57c-1.65-1.55-3.61-2.31-5.92-2.31Z" />
    <rect  fill="#ffffff" x="845.86" y="510.01" width="13.26" height="68.12" />
    <rect  fill="#ffffff" x="876.94" y="487.32" width="13.26" height="90.81" />
    <path fill="#ffffff" d="m954.01,521.04h-.79c-.82-1.42-1.93-3.04-3.36-4.91-1.45-1.87-3.45-3.51-6.04-4.91-2.6-1.39-5.98-2.12-10.22-2.12-5.44,0-10.35,1.39-14.66,4.18-4.33,2.78-7.72,6.77-10.19,12.03-2.47,5.22-3.7,11.52-3.7,18.86s1.23,13.67,3.67,18.93c2.44,5.25,5.79,9.27,10.1,12.09,4.3,2.85,9.21,4.24,14.72,4.24,4.11,0,7.5-.7,10.1-2.09,2.59-1.39,4.65-3.01,6.14-4.87,1.49-1.87,2.63-3.51,3.45-4.97h1.11v10.6h12.95v-90.81h-13.26v33.74Zm-1.84,35.61c-1.39,3.61-3.39,6.43-6.04,8.45-2.63,2.03-5.89,3.04-9.68,3.04s-7.25-1.04-9.91-3.16c-2.69-2.12-4.68-5-6.04-8.64-1.36-3.64-2.06-7.72-2.06-12.28s.66-8.51,2.03-12.09c1.33-3.58,3.35-6.39,6.01-8.48,2.66-2.06,5.98-3.1,9.97-3.1s7.12,1.01,9.75,2.98c2.63,1.99,4.62,4.75,5.98,8.29,1.36,3.54,2.06,7.69,2.06,12.41s-.7,8.99-2.06,12.6Z" />
    <path fill="#ffffff" d="m992.85,483.68c-2.31,0-4.27.76-5.92,2.31-1.65,1.55-2.47,3.42-2.47,5.6s.82,4.02,2.47,5.57c1.65,1.55,3.61,2.34,5.92,2.34s4.27-.79,5.92-2.34c1.65-1.55,2.47-3.42,2.47-5.6s-.82-4.02-2.47-5.57c-1.65-1.55-3.61-2.31-5.92-2.31Z" />
    <rect  fill="#ffffff" x="986.14" y="510.01" width="13.26" height="68.12" />
    <path fill="#ffffff" d="m1063.09,512.03c-3.51-1.96-7.57-2.91-12.22-2.91-5.1,0-9.34,1.08-12.69,3.26-3.36,2.22-5.82,5.1-7.38,8.7h-.85v-11.08h-12.72v68.12h13.26v-40.45c0-3.61.7-6.68,2.06-9.24,1.39-2.56,3.26-4.49,5.64-5.82,2.37-1.33,5.1-1.99,8.2-1.99,4.46,0,8.01,1.39,10.57,4.18,2.59,2.79,3.86,6.65,3.86,11.58v41.75h13.26v-43.33c0-5.6-.95-10.32-2.88-14.15-1.93-3.8-4.62-6.68-8.1-8.61Z" />
    <path fill="#ffffff" d="m1138.12,521.05h-.98c-.82-1.42-1.93-3.07-3.39-4.94-1.49-1.87-3.51-3.48-6.11-4.91-2.59-1.39-6.01-2.09-10.25-2.09-5.44,0-10.35,1.36-14.66,4.15-4.33,2.75-7.72,6.74-10.19,11.9-2.47,5.16-3.7,11.4-3.7,18.61s1.27,13.36,3.77,18.29c2.47,4.97,5.89,8.7,10.19,11.24,4.3,2.5,9.15,3.77,14.53,3.77,4.15,0,7.53-.63,10.13-1.93,2.6-1.3,4.65-2.85,6.14-4.62,1.49-1.77,2.66-3.39,3.45-4.84h.86v13.39c0,5.35-1.65,9.21-4.94,11.65-3.29,2.44-7.44,3.67-12.47,3.67-3.64,0-6.65-.54-8.96-1.55-2.34-1.04-4.18-2.28-5.51-3.77-1.36-1.46-2.41-2.85-3.23-4.15l-11.39,4.72c1.23,2.78,3.07,5.32,5.51,7.66,2.47,2.34,5.64,4.21,9.53,5.63,3.86,1.42,8.51,2.12,13.93,2.12,5.79,0,11.02-.89,15.64-2.69,4.62-1.8,8.29-4.59,11.01-8.32,2.72-3.77,4.08-8.58,4.08-14.43v-69.6h-12.98v11.05Zm-2.15,34.63c-1.39,3.35-3.39,5.95-6.04,7.72-2.66,1.8-5.89,2.69-9.68,2.69s-7.25-.95-9.91-2.85c-2.69-1.87-4.68-4.53-6.04-7.88-1.36-3.39-2.06-7.28-2.06-11.74s.66-8.29,2.03-11.81c1.33-3.51,3.35-6.3,6.01-8.36,2.66-2.06,5.98-3.07,9.97-3.07s7.12.98,9.75,2.94c2.63,1.96,4.62,4.68,5.98,8.17,1.36,3.48,2.06,7.53,2.06,12.12s-.7,8.7-2.06,12.06Z" />
    <path fill="#ffffff" d="m1221.05,523.21c2.75-1.96,5.98-2.91,9.69-2.91,4.21,0,7.6,1.14,10.13,3.45,2.53,2.31,4.15,5.06,4.84,8.26h12.91c-.48-4.59-1.96-8.61-4.46-12.03-2.5-3.42-5.76-6.11-9.81-8.01-4.05-1.9-8.67-2.85-13.83-2.85-6.43,0-12,1.49-16.71,4.46-4.75,3.01-8.42,7.15-11.01,12.44-2.6,5.32-3.9,11.43-3.9,18.33s1.27,12.91,3.8,18.2c2.57,5.29,6.21,9.43,10.95,12.44,4.75,3.01,10.42,4.49,17,4.49,5.38,0,10.07-.98,14.08-2.98,3.99-1.96,7.19-4.68,9.59-8.17,2.41-3.45,3.83-7.38,4.3-11.77h-12.91c-.54,2.44-1.55,4.56-2.94,6.3-1.39,1.74-3.13,3.07-5.19,3.99-2.06.95-4.34,1.42-6.84,1.42-3.77,0-7.03-1.01-9.78-2.98-2.75-1.99-4.91-4.78-6.43-8.39-1.49-3.61-2.25-7.88-2.25-12.85s.76-9.05,2.31-12.63c1.52-3.54,3.67-6.3,6.46-8.23Z" />
    <path fill="#ffffff" d="m1316,549.87c.03,3.86-.79,7.06-2.41,9.59-1.65,2.5-3.7,4.37-6.17,5.6-2.47,1.27-4.94,1.87-7.44,1.87-4.08,0-7.44-1.36-10-4.11-2.6-2.75-3.86-6.46-3.86-11.08v-41.72h-13.26v43.3c0,5.63.95,10.35,2.85,14.15,1.93,3.83,4.56,6.68,7.91,8.64,3.35,1.93,7.22,2.88,11.58,2.88,5.13,0,9.4-1.2,12.85-3.61,3.42-2.41,5.92-5.41,7.5-9.05h.7v11.77h13.04v-68.08h-13.29v39.85Z" />
    <rect  fill="#ffffff" x="1347.07" y="487.32" width="13.26" height="90.81" />
    <path fill="#ffffff" d="m1406.95,566.99c-.79.13-1.74.22-2.79.22-1.45,0-2.78-.25-4.02-.7-1.23-.48-2.22-1.33-3.01-2.63-.76-1.27-1.14-3.2-1.14-5.79v-37.44h13.96v-10.64h-13.96v-16.33h-13.26v16.33h-9.97v10.64h9.97v40.2c0,4.11.92,7.53,2.78,10.26,1.87,2.72,4.31,4.72,7.31,6.01,3.04,1.33,6.27,1.93,9.78,1.87,2.12-.03,3.89-.19,5.32-.51,1.42-.32,2.5-.6,3.26-.89l-2.37-10.98c-.44.09-1.08.22-1.87.38Z" />
    <path fill="#ffffff" d="m1467.74,549.87c.03,3.86-.76,7.06-2.41,9.59-1.65,2.5-3.7,4.37-6.17,5.6-2.47,1.27-4.94,1.87-7.44,1.87-4.11,0-7.44-1.36-10-4.11-2.6-2.75-3.86-6.46-3.86-11.08v-41.72h-13.26v43.3c0,5.63.95,10.35,2.85,14.15,1.93,3.83,4.56,6.68,7.91,8.64,3.35,1.93,7.22,2.88,11.58,2.88,5.13,0,9.4-1.2,12.85-3.61,3.42-2.41,5.95-5.41,7.5-9.05h.7v11.77h13.04v-68.08h-13.29v39.85Z" />
    <path fill="#ffffff" d="m1529.65,508.99c-4.02,0-7.57,1.05-10.73,3.17-3.13,2.12-5.35,5-6.58,8.67h-.7v-10.82h-12.82v68.11h13.26v-41.59c0-2.94.7-5.6,2.12-7.91,1.42-2.31,3.36-4.15,5.79-5.44,2.44-1.33,5.22-1.99,8.36-1.99,1.36,0,2.72.09,4.08.29,1.36.19,2.31.38,2.85.51v-12.66c-.66-.09-1.55-.16-2.69-.22-1.14-.06-2.12-.09-2.94-.09Z" />
    <path fill="#ffffff" d="m1602.88,543.34c0-6.17-.82-11.43-2.47-15.76-1.68-4.34-3.93-7.85-6.81-10.57-2.85-2.72-6.08-4.72-9.68-5.98-3.61-1.27-7.34-1.9-11.17-1.9-6.33,0-11.87,1.49-16.58,4.46-4.72,3.01-8.36,7.15-10.98,12.47-2.63,5.32-3.93,11.46-3.93,18.45s1.3,13.2,3.93,18.45c2.63,5.25,6.33,9.31,11.17,12.19,4.84,2.88,10.6,4.34,17.32,4.34,4.97,0,9.4-.76,13.29-2.28,3.86-1.52,7.12-3.67,9.68-6.43,2.6-2.78,4.4-6.01,5.41-9.69l-12.56-2.28c-.79,2.12-1.96,3.92-3.45,5.38-1.52,1.42-3.29,2.53-5.38,3.26-2.06.73-4.33,1.08-6.87,1.08-3.86,0-7.25-.82-10.16-2.5-2.88-1.68-5.13-4.11-6.74-7.31-1.5-2.97-2.31-6.52-2.42-10.67h48.41v-4.72Zm-48.39-5.22c.16-2.92.91-5.67,2.21-8.23,1.49-2.91,3.64-5.29,6.39-7.09,2.75-1.84,6.01-2.72,9.72-2.72,3.45,0,6.43.79,8.99,2.34,2.56,1.58,4.56,3.7,5.95,6.39,1.43,2.72,2.15,5.82,2.15,9.31h-35.42Z" />
</svg>