<?xml version="1.0" standalone="no"?>
<!DOCTYPE svg PUBLIC "-//W3C//DTD SVG 20010904//EN"
 "http://www.w3.org/TR/2001/REC-SVG-20010904/DTD/svg10.dtd">
<svg version="1.0" xmlns="http://www.w3.org/2000/svg"
 width="300.000000pt" height="63.000000pt" viewBox="0 0 300.000000 63.000000"
 preserveAspectRatio="xMidYMid meet">

<g transform="translate(0.000000,63.000000) scale(0.100000,-0.100000)"
fill="#ffffff" stroke="none">
<path d="M561 586 c-25 -40 -21 -55 19 -78 26 -15 30 -23 30 -58 0 -46 -1 -46
-41 -23 -23 14 -29 24 -29 53 0 47 -15 60 -67 60 l-43 0 0 -48 c0 -46 -2 -49
-40 -71 l-40 -23 22 -39 c23 -41 41 -47 72 -24 26 19 51 19 81 -1 33 -21 32
-27 -9 -46 -31 -15 -35 -15 -65 3 -44 27 -54 24 -79 -20 l-22 -39 40 -23 c38
-22 40 -25 40 -71 l0 -48 43 0 c52 0 67 13 67 60 0 32 5 38 35 53 20 9 37 17
38 17 1 0 1 -20 -1 -44 -3 -38 -8 -46 -32 -56 -37 -15 -43 -34 -25 -70 21 -41
31 -44 71 -19 l36 22 45 -22 c25 -12 46 -21 48 -19 45 64 45 80 0 108 -30 19
-35 27 -35 61 0 21 3 39 8 39 6 0 43 -22 61 -37 3 -2 7 -22 10 -46 l6 -42 48
-3 47 -3 0 50 c0 38 4 51 18 55 9 4 28 15 41 25 l24 18 -22 37 c-26 42 -34 43
-79 16 l-34 -21 -35 22 c-34 21 -35 23 -17 36 31 23 60 26 92 9 43 -22 47 -21
73 20 l22 37 -24 18 c-13 10 -32 21 -41 25 -14 4 -18 17 -18 55 l0 50 -47 -3
-48 -3 -3 -43 c-3 -36 -8 -46 -35 -62 -44 -27 -47 -26 -47 19 0 34 5 42 35 60
39 23 43 39 18 79 -9 15 -18 28 -19 30 -1 2 -22 -7 -47 -19 l-45 -22 -35 22
c-19 11 -37 21 -40 21 -3 0 -15 -15 -26 -34z"/>
<path d="M2598 577 c-91 -26 -171 -100 -199 -184 -6 -20 -9 -63 -6 -98 14
-180 182 -296 363 -252 132 33 212 126 222 256 3 54 0 76 -18 119 -26 59 -83
115 -146 143 -57 26 -156 33 -216 16z m161 -132 c51 -26 81 -71 81 -121 0 -93
-52 -153 -140 -162 -95 -9 -161 49 -168 147 -4 63 14 97 72 132 38 23 115 25
155 4z"/>
<path d="M180 376 c0 -107 -3 -201 -6 -210 -8 -21 -53 -20 -76 1 -18 16 -21
15 -55 -20 -37 -36 -37 -36 -17 -58 34 -38 73 -51 136 -47 66 5 102 26 133 79
18 30 20 56 23 242 l4 207 -71 0 -71 0 0 -194z"/>
<path d="M1020 310 l0 -260 70 0 69 0 3 102 3 101 68 -101 67 -102 81 0 81 0
-53 68 c-30 37 -67 85 -84 106 -16 21 -25 41 -20 43 69 25 105 75 105 147 0
66 -27 111 -83 136 -34 16 -66 20 -174 20 l-133 0 0 -260z m226 152 c21 -13
34 -52 28 -77 -7 -29 -23 -40 -76 -49 l-38 -7 0 71 0 70 38 0 c20 0 42 -4 48
-8z"/>
<path d="M1480 310 l0 -260 113 0 c152 0 203 16 272 83 91 89 106 196 44 306
-32 55 -95 103 -159 121 -19 5 -88 10 -152 10 l-118 0 0 -260z m261 127 c48
-32 71 -81 66 -140 -7 -83 -68 -137 -154 -137 l-43 0 0 150 0 150 49 0 c33 0
58 -7 82 -23z"/>
<path d="M1991 315 c-56 -140 -101 -258 -101 -260 0 -3 31 -5 69 -5 l68 0 17
45 18 45 102 0 103 0 17 -45 18 -45 69 0 c38 0 69 1 69 3 0 2 -44 118 -99 258
l-98 254 -76 3 -75 3 -101 -256z m207 20 c11 -33 23 -68 27 -77 6 -16 0 -18
-58 -18 l-66 0 25 73 c35 104 34 101 43 91 5 -5 17 -36 29 -69z"/>
</g>
</svg>
