<?xml version="1.0" encoding="utf-8"?>
<!-- Generator: Adobe Illustrator 27.1.1, SVG Export Plug-In . SVG Version: 6.00 Build 0)  -->
<svg version="1.1" id="Camada_1" xmlns="http://www.w3.org/2000/svg" xmlns:xlink="http://www.w3.org/1999/xlink" x="0px" y="0px"
	 viewBox="0 0 1920 313" style="enable-background:new 0 0 1920 313;" xml:space="preserve">
<style type="text/css">
	.st0{fill:url(#SVGID_1_);}
	.st1{fill:url(#SVGID_00000037672242024722869240000008634658971242291626_);}
	.st2{fill:url(#SVGID_00000029036467993189909030000011712993203563817865_);}
	.st3{fill:url(#SVGID_00000031920420011836948410000000010374722758678709_);}
	.st4{fill:url(#SVGID_00000022518289466848677290000012416568653855104663_);}
	.st5{fill:url(#SVGID_00000124839891791836499770000006491551665455122074_);}
	.st6{fill:#3D3D3B;}
</style>
<g>
	<g>
		
			<linearGradient id="SVGID_1_" gradientUnits="userSpaceOnUse" x1="139.3672" y1="21.925" x2="141.0698" y2="272.2114" gradientTransform="matrix(1 0 0 1 -3.0879 1.2674)">
			<stop  offset="0.0469" style="stop-color:#37954A"/>
			<stop  offset="0.7543" style="stop-color:#2C5884"/>
			<stop  offset="0.7743" style="stop-color:#2D5885"/>
			<stop  offset="0.9457" style="stop-color:#2D5885"/>
		</linearGradient>
		<path class="st0" d="M151.75,76.82L95.53,20.6c-1.67-1.67-1.67-4.37,0-6.03l1.7-1.7c11.45-11.45,30.02-11.45,41.47,0l38.5,38.5
			c1.67,1.67,1.67,4.37,0,6.03l-19.42,19.42C156.12,78.48,153.42,78.48,151.75,76.82z"/>
		
			<linearGradient id="SVGID_00000016780833596300164590000016076391629863666088_" gradientUnits="userSpaceOnUse" x1="98.2416" y1="22.6659" x2="99.927" y2="270.4209" gradientTransform="matrix(1 0 0 1 -3.0879 1.2674)">
			<stop  offset="0" style="stop-color:#37954A"/>
			<stop  offset="0.992" style="stop-color:#2D5885"/>
		</linearGradient>
		<path style="fill:url(#SVGID_00000016780833596300164590000016076391629863666088_);" d="M188.05,265.72l0.35,37.39
			c0.04,4.02-4.81,6.06-7.66,3.23L13.56,140.18C1.27,127.96,1.43,108.02,13.91,96l0,0c1.76-1.7,4.56-1.67,6.3,0.06l166.53,166.53
			C187.57,263.42,188.04,264.55,188.05,265.72z"/>
		
			<linearGradient id="SVGID_00000175310094205277266820000016051876659102405002_" gradientUnits="userSpaceOnUse" x1="247.6546" y1="20.9189" x2="249.3537" y2="270.6862" gradientTransform="matrix(1 0 0 1 -3.0879 1.2674)">
			<stop  offset="0" style="stop-color:#37954A"/>
			<stop  offset="1" style="stop-color:#2D5885"/>
		</linearGradient>
		<path style="fill:url(#SVGID_00000175310094205277266820000016051876659102405002_);" d="M178.75,101.92l88.9-88.9
			c11.48-11.48,30.09-11.48,41.57,0l1.7,1.7c1.64,1.64,1.64,4.29,0,5.93L204.2,127.37c-1.64,1.64-4.29,1.64-5.93,0l-19.52-19.52
			C177.11,106.21,177.11,103.55,178.75,101.92z"/>
		
			<linearGradient id="SVGID_00000145058907289176632690000007729757947449706153_" gradientUnits="userSpaceOnUse" x1="298.3922" y1="21.7324" x2="300.0693" y2="268.2702" gradientTransform="matrix(1 0 0 1 -3.0879 1.2674)">
			<stop  offset="0" style="stop-color:#37954A"/>
			<stop  offset="1" style="stop-color:#2D5885"/>
		</linearGradient>
		<path style="fill:url(#SVGID_00000145058907289176632690000007729757947449706153_);" d="M231.82,148.32L334.52,45.63
			c2.06-2.06,5.4-2.06,7.46,0l17.99,17.99c2.06,2.06,2.06,5.4,0,7.46L257.27,173.77c-2.06,2.06-5.4,2.06-7.46,0l-17.99-17.99
			C229.76,153.72,229.76,150.38,231.82,148.32z"/>
		
			<linearGradient id="SVGID_00000156553753457233541800000009849729126988990631_" gradientUnits="userSpaceOnUse" x1="137.5577" y1="22.7938" x2="139.2372" y2="269.6775" gradientTransform="matrix(1 0 0 1 -3.0879 1.2674)">
			<stop  offset="0" style="stop-color:#37954A"/>
			<stop  offset="0.9997" style="stop-color:#2D5885"/>
		</linearGradient>
		<path style="fill:url(#SVGID_00000156553753457233541800000009849729126988990631_);" d="M199.17,225.47L45.84,72.14
			c-2.06-2.06-2.06-5.4,0-7.46l17.99-17.99c2.06-2.06,5.4-2.06,7.46,0l153.32,153.32c2.06,2.06,2.06,5.4,0,7.46l-17.99,17.99
			C204.57,227.53,201.23,227.53,199.17,225.47z"/>
		
			<linearGradient id="SVGID_00000028289654365350827700000001788629665901750918_" gradientUnits="userSpaceOnUse" x1="312.1117" y1="21.211" x2="313.7971" y2="268.966" gradientTransform="matrix(1 0 0 1 -3.0879 1.2674)">
			<stop  offset="0.0225" style="stop-color:#37954A"/>
			<stop  offset="1" style="stop-color:#2D5885"/>
		</linearGradient>
		<path style="fill:url(#SVGID_00000028289654365350827700000001788629665901750918_);" d="M220.3,261.83L386.06,96.07
			c1.76-1.76,4.6-1.76,6.36,0l0,0c12.3,12.3,12.3,32.24,0,44.54L226.64,306.39c-2.83,2.83-7.67,0.83-7.67-3.18l0.01-38.2
			C218.98,263.82,219.45,262.68,220.3,261.83z"/>
	</g>
	<g>
		<path class="st6" d="M576.29,65.53c9.6-5.16,20.58-7.74,32.93-7.74c14.36,0,27.36,3.54,39,10.62s20.83,17.15,27.62,30.2
			c6.77,13.05,10.16,28.18,10.16,45.38c0,17.2-3.39,32.43-10.16,45.68c-6.78,13.25-15.98,23.52-27.62,30.81
			c-11.63,7.29-24.63,10.92-39,10.92c-12.35,0-23.22-2.53-32.63-7.58c-2.53-1.36-4.93-2.81-7.21-4.36
			c-6.7-4.56-15.71,0.07-15.71,8.17v71.16c0,5.53-4.48,10.01-10.01,10.01H521.2c-5.53,0-10.01-4.48-10.01-10.01V70.54
			c0-5.53,4.48-10.01,10.01-10.01h22.46c5.53,0,10.01,4.48,10.01,10.01V84.8C559.14,77.11,566.68,70.69,576.29,65.53z
			 M636.38,117.73c-4.14-7.38-9.61-13-16.39-16.84c-6.78-3.84-14.11-5.77-22-5.77c-7.7,0-14.92,1.97-21.7,5.92
			c-6.78,3.94-12.24,9.66-16.4,17.15c-4.14,7.49-6.22,16.29-6.22,26.41s2.07,18.92,6.22,26.4c4.15,7.49,9.61,13.21,16.4,17.15
			c6.77,3.95,14,5.92,21.7,5.92c7.89,0,15.22-2.02,22-6.07c6.77-4.05,12.24-9.81,16.39-17.3c4.14-7.49,6.22-16.39,6.22-26.71
			C642.6,133.87,640.52,125.12,636.38,117.73z"/>
		<path class="st6" d="M780.85,65.68c5.71-3.28,11.96-5.5,18.74-6.65c6.01-1.02,11.47,3.87,11.47,9.97v33.71h-11.23
			c-13.35,0-23.43,3.14-30.2,9.41c-6.77,6.27-10.16,17.2-10.16,32.78v73.76c0,5.53-4.48,10.01-10.01,10.01h-22.46
			c-5.53,0-10.01-4.48-10.01-10.01V70.54c0-5.53,4.48-10.01,10.01-10.01h22.46c5.53,0,10.01,4.48,10.01,10.01v16.09
			C764.91,77.72,772.05,70.74,780.85,65.68z"/>
		<path class="st6" d="M870.54,220.62c-12.95-7.18-23.12-17.35-30.51-30.51c-7.38-13.15-11.08-28.33-11.08-45.52
			s3.79-32.37,11.38-45.53c7.59-13.15,17.96-23.32,31.11-30.5c13.15-7.18,27.82-10.78,44.01-10.78s30.85,3.59,44.01,10.78
			s23.52,17.35,31.11,30.5c7.59,13.16,11.38,28.33,11.38,45.53s-3.9,32.38-11.68,45.52c-7.8,13.16-18.31,23.32-31.57,30.51
			c-13.25,7.18-28.07,10.77-44.47,10.77C898.05,231.4,883.49,227.81,870.54,220.62z M935.95,188.75
			c6.77-3.74,12.18-9.36,16.23-16.84s6.08-16.59,6.08-27.31c0-15.98-4.2-28.28-12.6-36.88c-8.4-8.6-18.66-12.9-30.81-12.9
			c-12.14,0-22.31,4.31-30.5,12.9c-8.2,8.6-12.29,20.89-12.29,36.88s3.99,28.28,11.99,36.87c7.98,8.61,18.06,12.9,30.19,12.9
			C921.93,194.37,929.16,192.5,935.95,188.75z"/>
		<path class="st6" d="M1291.95,77.06c12.64,12.65,18.97,30.3,18.97,52.96v88.63c0,5.53-4.48,10.01-10.01,10.01h-22.46
			c-5.53,0-10.01-4.48-10.01-10.01v-82.86c0-13.15-3.34-23.22-10.01-30.2c-6.68-6.98-15.79-10.47-27.31-10.47
			c-11.54,0-20.7,3.49-27.47,10.47c-6.78,6.98-10.16,17.05-10.16,30.2v82.86c0,5.53-4.48,10.01-10.01,10.01h-22.46
			c-5.53,0-10.01-4.48-10.01-10.01v-82.86c0-13.15-3.34-23.22-10.01-30.2c-6.68-6.98-15.79-10.47-27.31-10.47
			c-11.74,0-21,3.49-27.78,10.47c-6.77,6.98-10.16,17.05-10.16,30.2v82.86c0,5.53-4.48,10.01-10.01,10.01h-22.46
			c-5.53,0-10.01-4.48-10.01-10.01V70.54c0-5.53,4.48-10.01,10.01-10.01h22.46c5.53,0,10.01,4.48,10.01,10.01v10.32
			c5.46-7.08,12.49-12.64,21.09-16.69c8.6-4.05,18.06-6.07,28.38-6.07c13.16,0,24.89,2.78,35.21,8.35
			c6.56,3.54,12.18,8.03,16.86,13.49c3.91,4.56,10.82,4.05,14.87-0.4c4.47-4.9,9.83-9.12,16.08-12.64c10.42-5.87,21.7-8.8,33.84-8.8
			C1262.67,58.1,1279.3,64.42,1291.95,77.06z"/>
		<path class="st6" d="M1416.39,65.53c9.6-5.16,20.58-7.74,32.93-7.74c14.36,0,27.36,3.54,39,10.62
			c11.63,7.08,20.83,17.15,27.62,30.2c6.77,13.05,10.16,28.18,10.16,45.38c0,17.2-3.39,32.43-10.16,45.68
			c-6.78,13.25-15.98,23.52-27.62,30.81c-11.63,7.29-24.63,10.92-39,10.92c-12.35,0-23.22-2.53-32.63-7.58
			c-2.53-1.36-4.93-2.81-7.21-4.36c-6.7-4.56-15.71,0.07-15.71,8.17v71.16c0,5.53-4.48,10.01-10.01,10.01h-22.46
			c-5.53,0-10.01-4.48-10.01-10.01V70.54c0-5.53,4.48-10.01,10.01-10.01h22.46c5.53,0,10.01,4.48,10.01,10.01V84.8
			C1399.24,77.11,1406.78,70.69,1416.39,65.53z M1476.48,117.73c-4.14-7.38-9.61-13-16.39-16.84c-6.78-3.84-14.11-5.77-22-5.77
			c-7.7,0-14.92,1.97-21.7,5.92c-6.78,3.94-12.24,9.66-16.4,17.15c-4.14,7.49-6.22,16.29-6.22,26.41s2.07,18.92,6.22,26.4
			c4.15,7.49,9.61,13.21,16.4,17.15c6.77,3.95,14,5.92,21.7,5.92c7.89,0,15.22-2.02,22-6.07c6.77-4.05,12.24-9.81,16.39-17.3
			c4.14-7.49,6.22-16.39,6.22-26.71C1482.71,133.87,1480.62,125.12,1476.48,117.73z"/>
		<path class="st6" d="M1616.55,95.42c-5.53,0-10.01,4.48-10.01,10.01v71.33c0,5.67,1.36,9.76,4.09,12.29
			c2.73,2.53,7.33,3.79,13.8,3.79h9.72c5.53,0,10.01,4.48,10.01,10.01v15.78c0,5.53-4.48,10.01-10.01,10.01h-16.7
			c-35.81,0-53.72-17.4-53.72-52.2v-71.02c0-5.53-4.48-10.01-10.01-10.01l0,0c-5.53,0-10.01-4.48-10.01-10.01V70.54
			c0-5.53,4.48-10.01,10.01-10.01l0,0c5.53,0,10.01-4.48,10.01-10.01V28.95c0-5.53,4.48-10.01,10.01-10.01h22.77
			c5.53,0,10.01,4.48,10.01,10.01v21.55c0,5.53,4.48,10.01,10.01,10.01h17.6c5.53,0,10.01,4.48,10.01,10.01v14.87
			c0,5.53-4.48,10.01-10.01,10.01H1616.55z"/>
		<path class="st6" d="M1717.32,14.08v204.57c0,5.53-4.48,10.01-10.01,10.01h-22.46c-5.53,0-10.01-4.48-10.01-10.01V14.08
			c0-5.53,4.48-10.01,10.01-10.01h22.46C1712.83,4.07,1717.32,8.55,1717.32,14.08z"/>
		<path class="st6" d="M1914.21,74.42l-95.68,227.64c-1.56,3.72-5.2,6.13-9.23,6.13H1786c-7.21,0-12.06-7.39-9.18-14.01l28.64-65.88
			c1.08-2.48,1.11-5.3,0.08-7.8l-60.08-146.15c-2.71-6.59,2.14-13.82,9.26-13.82h25.73c4.19,0,7.94,2.61,9.39,6.54l31.65,85.67
			c3.22,8.7,15.52,8.73,18.77,0.04l32.14-85.75c1.47-3.91,5.2-6.5,9.38-6.5h23.2C1912.13,60.52,1916.98,67.82,1914.21,74.42z"/>
	</g>
</g>
</svg>
