<svg xmlns="http://www.w3.org/2000/svg" width="232" height="115" viewBox="0 0 232 115" version="1.1"><path d="M 102.750 19.080 C 101.177 19.997, 101 22.098, 101 39.906 L 101 59.713 108.013 60.365 C 120.378 61.514, 125.250 57.894, 125.761 47.177 C 126.279 36.325, 122.347 31.741, 112.621 31.857 L 107 31.925 107 24.962 C 107 17.739, 106.423 16.941, 102.750 19.080 M 17.637 31.420 C 13.280 33.024, 8.512 37.178, 6.411 41.200 C 4.580 44.705, 4.601 53.328, 6.449 56.901 C 8.576 61.014, 14.387 65.736, 19.036 67.129 C 22.439 68.149, 23.939 68.081, 28.201 66.718 C 36.446 64.082, 38.963 67.058, 35.500 75.346 C 33.429 80.302, 33.623 85.342, 36.070 90.137 C 37.208 92.368, 37.846 94.488, 37.487 94.847 C 37.128 95.206, 34.832 95.556, 32.385 95.624 C 25.097 95.827, 21.437 101.078, 24.481 106.964 C 25.582 109.093, 26.997 110.096, 29.582 110.581 C 36.178 111.819, 40.301 107.410, 39.249 100.245 C 38.692 96.447, 39.283 96.320, 45.141 98.978 C 47.538 100.066, 50.752 100.966, 52.282 100.978 C 58.367 101.026, 66.465 95.780, 69.615 89.750 C 71.578 85.992, 75.324 86.046, 77.579 89.864 C 81.494 96.492, 88.849 97.827, 94.434 92.924 C 102.574 85.777, 98.204 74, 87.412 74 C 82.913 74, 78.566 76.641, 77.492 80.026 C 76.689 82.554, 72.165 82.720, 71.384 80.250 C 67.334 67.443, 58.473 61.208, 48.350 64.042 C 44.654 65.077, 43.670 65.014, 41.516 63.602 C 38.580 61.679, 38.507 61, 40.592 55.010 C 45.567 40.723, 31.535 26.302, 17.637 31.420 M 50.235 31.060 C 47.889 31.523, 45.526 32.175, 44.985 32.509 C 44.417 32.860, 44 38.817, 44 46.559 L 44 60 47 60 L 50 60 50 48.559 L 50 37.118 54.250 36.248 C 62.448 34.570, 62.966 35.400, 62.986 50.250 L 63 60 66 60 L 69 60 69 48.950 C 69 30.960, 65.871 27.977, 50.235 31.060 M 79.241 31.935 C 72.255 36.322, 69.798 46.412, 73.863 54.016 C 76.199 58.386, 83.092 61.583, 88.127 60.631 C 94.006 59.521, 98 56.439, 98 53.015 C 98 51.357, 97.751 50, 97.447 50 C 97.143 50, 95.238 51.125, 93.215 52.500 C 89.586 54.966, 83.804 55.799, 81.313 54.214 C 80.659 53.799, 79.677 52.281, 79.130 50.841 L 78.135 48.224 86.317 47.023 C 98.329 45.260, 98 45.430, 98 40.948 C 98 35.017, 93.885 30.873, 87.441 30.316 C 83.665 29.989, 81.732 30.371, 79.241 31.935 M 132.206 32.047 C 130.276 32.822, 130.084 33.288, 130.994 34.988 C 131.948 36.771, 132.715 36.933, 137.521 36.369 C 141.265 35.929, 143.442 36.122, 144.484 36.987 C 147.129 39.182, 146.267 40.630, 142.571 40.198 C 134.936 39.307, 128 44.168, 128 50.412 C 128 57.757, 133.910 61.227, 144.857 60.309 L 152 59.710 152 48.278 C 152 36.976, 151.967 36.813, 149.077 33.923 C 146.493 31.340, 145.477 31.007, 140.327 31.063 C 137.122 31.098, 133.468 31.541, 132.206 32.047 M 156.667 31.667 C 156.300 32.033, 156 37.201, 156 43.151 C 156 53.667, 156.080 54.059, 158.891 57.205 C 161.361 59.969, 162.418 60.424, 166.141 60.327 C 168.539 60.265, 172.863 60.157, 175.750 60.089 L 181 59.964 181 45.482 L 181 31 178 31 L 175 31 175 41.965 C 175 54.195, 174.553 55, 167.766 55 C 162.524 55, 162 53.801, 162 41.800 C 162 31.152, 161.967 31, 159.667 31 C 158.383 31, 157.033 31.300, 156.667 31.667 M 185 45.607 L 185 60 187.750 60.001 L 190.500 60.001 190.500 49.086 C 190.500 43.083, 190.782 37.888, 191.126 37.543 C 191.470 37.197, 193.379 36.650, 195.368 36.328 C 201.326 35.361, 202 36.661, 202 49.122 L 202 60 205.061 60 L 208.121 60 207.811 48.509 C 207.476 36.144, 207.535 36, 212.882 36 C 217.420 36, 218 37.497, 218 49.200 L 218 60 221 60 L 224 60 224 48.089 L 224 36.178 221.047 33.693 C 218.161 31.265, 217.713 31.208, 201.547 31.210 L 185 31.213 185 45.607 M 83.465 35.952 C 81.264 36.844, 79.621 38.618, 78.776 41.016 C 78.312 42.334, 79.143 42.408, 85.121 41.582 C 88.905 41.059, 92 40.264, 92 39.815 C 92 38.508, 88.118 34.994, 86.750 35.063 C 86.063 35.098, 84.584 35.498, 83.465 35.952 M 109.673 37.276 C 106.937 38.188, 106.924 38.237, 107.211 46.346 L 107.500 54.500 112.193 54.802 C 116.254 55.064, 117.103 54.773, 118.504 52.634 C 119.395 51.275, 120.148 48.328, 120.179 46.086 C 120.280 38.803, 115.960 35.180, 109.673 37.276 M 135.200 47.200 C 134.540 47.860, 134 49.345, 134 50.500 C 134 53.482, 135.895 55, 139.618 55 C 144.963 55, 146 54.170, 146 49.893 L 146 46 141.200 46 C 138.560 46, 135.860 46.540, 135.200 47.200" stroke="none" fill="#fffcfc" fill-rule="evenodd"/><path d="M 190.355 48.500 C 190.352 53.450, 190.521 55.601, 190.731 53.280 C 190.940 50.959, 190.943 46.909, 190.736 44.280 C 190.530 41.651, 190.358 43.550, 190.355 48.500" stroke="none" fill="#fcfcfc" fill-rule="evenodd"/></svg>