<svg xmlns="http://www.w3.org/2000/svg" width="1205" height="280" viewBox="0 0 1205 280" version="1.1"><path d="M 598.062 13.827 C 588.750 18.821, 588.654 34.667, 597.906 39.451 C 599.553 40.303, 603.310 41, 606.255 41 C 611.380 41, 615.044 39.333, 622.539 33.592 C 623.324 32.991, 625.075 33.770, 627.724 35.898 C 632.491 39.729, 640.305 42.301, 644.495 41.418 C 654.716 39.263, 659.634 30.118, 655.629 20.718 C 653.414 15.519, 649.696 12.773, 644.149 12.240 C 638.060 11.655, 633.205 13.197, 627.554 17.511 L 623.196 20.837 620.848 18.287 C 615.413 12.383, 604.674 10.281, 598.062 13.827 M 637.748 19.427 C 633.701 20.871, 627 25.565, 627 26.955 C 627 27.917, 636.260 33.329, 639.824 34.451 C 645.340 36.186, 652.022 29.819, 650.071 24.688 C 649.085 22.094, 644.458 17.971, 642.615 18.044 C 642.002 18.068, 639.812 18.690, 637.748 19.427 M 599.655 20.829 C 598.682 21.904, 598 24.346, 598 26.756 C 598 29.993, 598.554 31.291, 600.635 32.927 C 604.122 35.671, 605.468 35.562, 613.838 31.866 L 620.934 28.731 618.891 26.116 C 613.845 19.655, 603.332 16.765, 599.655 20.829 M 565 50.981 C 565 55.942, 570.842 64.408, 596.487 96.610 C 611.770 115.799, 624.665 132, 625.143 132.611 C 625.709 133.332, 615.882 146.010, 597.096 168.798 C 571.923 199.332, 567.973 204.582, 566.589 209.341 C 565.715 212.348, 565 215.076, 565 215.404 C 565 216.201, 670.884 216.173, 674.875 215.375 C 677.969 214.756, 678 214.689, 677.985 208.625 C 677.976 205.256, 677.615 201.943, 677.183 201.261 C 676.582 200.316, 666.662 199.961, 635.350 199.761 L 594.304 199.500 621.110 166.587 C 635.854 148.485, 647.748 133.410, 647.543 133.087 C 647.337 132.764, 635.440 117.650, 621.103 99.500 C 606.767 81.350, 595.029 66.162, 595.019 65.750 C 595.008 65.338, 613.695 65, 636.544 65 L 678.088 65 677.794 57.750 L 677.500 50.500 621.250 50.242 C 584.334 50.072, 565 50.326, 565 50.981 M 11.405 69.500 C 11.406 78.300, 11.559 81.766, 11.745 77.203 C 11.930 72.639, 11.929 65.439, 11.742 61.203 C 11.555 56.966, 11.404 60.700, 11.405 69.500 M 715.349 97 C 715.349 101.675, 715.522 103.587, 715.732 101.250 C 715.943 98.912, 715.943 95.087, 715.732 92.750 C 715.522 90.412, 715.349 92.325, 715.349 97 M 739.470 156 C 739.470 189.825, 739.596 203.662, 739.749 186.750 C 739.903 169.837, 739.903 142.162, 739.749 125.250 C 739.596 108.337, 739.470 122.175, 739.470 156 M 459.466 163 C 459.466 192.975, 459.594 205.237, 459.749 190.250 C 459.905 175.262, 459.905 150.737, 459.749 135.750 C 459.594 120.762, 459.466 133.025, 459.466 163 M 980.355 127.500 C 980.352 132.450, 980.521 134.601, 980.731 132.280 C 980.940 129.959, 980.943 125.909, 980.736 123.280 C 980.530 120.651, 980.358 122.550, 980.355 127.500 M 278.422 156 C 278.422 167.275, 278.568 171.887, 278.746 166.250 C 278.924 160.613, 278.924 151.387, 278.746 145.750 C 278.568 140.113, 278.422 144.725, 278.422 156 M 341.360 157 C 341.360 162.225, 341.529 164.363, 341.735 161.750 C 341.941 159.137, 341.941 154.863, 341.735 152.250 C 341.529 149.637, 341.360 151.775, 341.360 157 M 1075.343 209.500 C 1075.346 213.900, 1075.522 215.576, 1075.733 213.224 C 1075.945 210.872, 1075.942 207.272, 1075.727 205.224 C 1075.512 203.176, 1075.339 205.100, 1075.343 209.500 M 584.773 225.201 C 583.989 227.330, 585.035 229, 587.153 229 C 588.638 229, 589.059 228.435, 588.820 226.760 C 588.466 224.284, 585.528 223.152, 584.773 225.201 M 654 229.937 C 650.975 232.027, 648.500 234.358, 648.500 235.118 C 648.500 237.121, 652.490 237.380, 655.271 235.558 C 656.585 234.697, 657.961 234.295, 658.330 234.663 C 659.166 235.499, 659.221 257.260, 658.393 259.418 C 657.982 260.489, 656.518 261, 653.862 261 C 649.687 261, 647.466 263.415, 650.104 265.086 C 651.687 266.088, 668.295 266.295, 671.798 265.357 C 675.474 264.373, 674.133 261.554, 669.818 261.194 C 667.802 261.026, 665.680 260.319, 665.102 259.623 C 664.494 258.891, 663.936 251.656, 663.776 242.429 C 663.453 223.767, 663.271 223.534, 654 229.937 M 579.890 237.750 C 577.305 243.774, 573 258.542, 573 261.389 C 573 268.311, 580.440 270.281, 585.696 264.750 C 589.471 260.777, 593.334 253.312, 592.601 251.403 C 591.510 248.560, 589.003 250.148, 585.735 255.750 C 583.516 259.553, 581.639 261.608, 580.190 261.820 C 577.152 262.263, 577.330 260.382, 581.500 248 C 583.425 242.284, 585 236.570, 585 235.304 C 585 231.287, 582.060 232.694, 579.890 237.750 M 607.667 238.667 C 606.431 239.903, 606.988 242.781, 608.582 243.393 C 609.452 243.727, 615.022 244, 620.959 244 C 629.336 244, 632.034 243.664, 633 242.500 C 633.993 241.303, 633.993 240.697, 633 239.500 C 632.023 238.323, 629.234 238, 620.044 238 C 613.603 238, 608.033 238.300, 607.667 238.667 M 607.500 250 C 606.024 252.387, 608.691 253, 620.559 253 C 632.333 253, 633 252.893, 633 251 C 633 249.107, 632.333 249, 620.559 249 C 613.344 249, 607.858 249.420, 607.500 250" stroke="none" fill="#ffffff" fill-rule="evenodd"/><path d="M 70.410 50.484 C 58.507 53.074, 49.630 57.601, 41.420 65.268 C 32.734 73.380, 32.530 73.325, 31.470 62.577 C 30.418 51.918, 30.367 51.869, 20.694 52.210 L 12.500 52.500 12.580 133.693 C 12.644 198.506, 12.921 215.200, 13.952 216.443 C 14.936 217.627, 17.265 218, 23.688 218 C 37.457 218, 36 225.353, 36 155.866 C 36 87.877, 35.493 92.302, 44.246 83.876 C 54.448 74.055, 66.952 69.568, 82.380 70.192 C 97.828 70.817, 106.175 75.549, 111.710 86.818 L 114.500 92.500 115 154.287 C 115.433 207.740, 115.702 216.204, 117 217.040 C 117.825 217.572, 123 217.893, 128.500 217.753 L 138.500 217.500 138.761 158 C 138.983 107.403, 138.787 97.228, 137.451 90 C 135.300 78.362, 130.358 68.600, 123.122 61.698 C 113.106 52.144, 103.978 48.952, 87.040 49.079 C 81.243 49.123, 73.759 49.755, 70.410 50.484 M 397.500 50.100 C 386.791 52.508, 377.314 57.753, 368.345 66.236 C 365.393 69.027, 362.717 71.051, 362.399 70.733 C 362.081 70.414, 361.351 66.632, 360.776 62.327 C 360.131 57.490, 359.137 54.022, 358.175 53.250 C 356.578 51.968, 345.444 51.509, 342.582 52.607 C 341.188 53.142, 341 56.756, 341 82.942 C 341 99.293, 341.299 136.384, 341.664 165.367 L 342.328 218.062 353.414 217.781 L 364.500 217.500 365 154.959 L 365.500 92.418 368.721 88.351 C 373.983 81.709, 379.841 76.970, 386.877 73.664 C 392.603 70.974, 394.855 70.501, 403.506 70.172 C 409.009 69.963, 415.352 70.287, 417.601 70.893 C 424.262 72.686, 429.834 77.414, 432.837 83.819 L 435.500 89.500 436 153.500 L 436.500 217.500 447.650 217.782 L 458.799 218.064 459.170 156.282 C 459.469 106.594, 459.808 94.011, 460.903 92 C 465.707 83.178, 475.154 75.657, 486.054 71.977 C 494.693 69.060, 510.285 69.452, 516.595 72.745 C 522.134 75.636, 526.371 80.702, 528.897 87.456 C 530.952 92.946, 531 94.508, 531 155.570 L 531 218.066 542.250 217.783 L 553.500 217.500 553.759 156 C 554.051 86.577, 553.793 83.036, 547.515 70.333 C 542.320 59.821, 534.590 54.043, 520.940 50.466 C 512.503 48.255, 495.390 48.967, 485.955 51.922 C 475.359 55.240, 462.095 64.346, 457.384 71.537 L 455.785 73.977 452.069 68.239 C 445.663 58.344, 438.395 53.249, 426.781 50.511 C 419.930 48.895, 403.861 48.670, 397.500 50.100 M 768.500 50.405 C 758.268 52.933, 746.660 59.861, 740.608 67.053 C 737.074 71.254, 736.088 70.193, 734.925 60.933 C 734.421 56.912, 733.443 53.264, 732.754 52.827 C 731.178 51.826, 717.890 51.776, 716.375 52.765 C 715.548 53.305, 715.416 75.249, 715.875 135.500 L 716.500 217.500 727.750 217.783 L 739 218.066 739 156.875 L 739 95.685 743.190 90.253 C 751.989 78.848, 761.443 73.562, 776.401 71.684 C 781.589 71.032, 786.040 70.274, 786.292 70 C 786.543 69.725, 787.067 64.888, 787.455 59.250 L 788.160 49 780.830 49.085 C 776.799 49.132, 771.250 49.726, 768.500 50.405 M 1034.324 50.933 C 1023.635 53.821, 1015.980 58.240, 1006.735 66.860 C 1004.114 69.303, 1001.714 71.048, 1001.403 70.736 C 1001.091 70.424, 1000.382 66.644, 999.828 62.335 C 999.180 57.303, 998.247 54.053, 997.218 53.250 C 995.560 51.955, 984.426 51.516, 981.519 52.631 C 980.004 53.213, 979.929 59.639, 980.568 134.381 C 981.005 185.398, 981.630 215.964, 982.254 216.750 C 983.604 218.452, 1000.012 218.452, 1002.291 216.750 C 1003.819 215.609, 1003.988 210.179, 1004.232 154.500 L 1004.500 93.500 1007.157 89.416 C 1010.973 83.554, 1018.352 77.412, 1025.916 73.801 C 1031.485 71.144, 1033.938 70.602, 1042.224 70.203 C 1058.481 69.421, 1066.903 73.293, 1071.837 83.819 L 1074.500 89.500 1075 152.667 C 1075.275 187.409, 1075.874 216.209, 1076.331 216.667 C 1076.788 217.125, 1082.075 217.652, 1088.081 217.838 L 1099 218.177 1099 156.549 C 1099 96.122, 1099.041 94.841, 1101.078 90.847 C 1104.193 84.740, 1111.240 78.485, 1119.731 74.288 C 1126.706 70.841, 1128.132 70.510, 1137.409 70.177 C 1145.810 69.875, 1148.431 70.165, 1153.062 71.909 C 1159.673 74.398, 1164.535 78.835, 1167.405 85 C 1169.445 89.382, 1169.513 91.175, 1170 153.500 L 1170.500 217.500 1181.750 217.783 L 1193 218.066 1193 155.121 C 1193 87.016, 1192.715 82.609, 1187.576 71.386 C 1183.113 61.635, 1171.584 52.757, 1159.885 50.060 C 1153.498 48.587, 1138.571 48.811, 1130.500 50.499 C 1119.219 52.860, 1108.331 58.822, 1101.011 66.648 C 1095.928 72.081, 1094.599 73.034, 1093.883 71.756 C 1089.076 63.165, 1078.864 54.288, 1070.521 51.446 C 1062.638 48.760, 1043.375 48.488, 1034.324 50.933 M 177.188 52.862 C 176.123 53.538, 175.945 65.483, 176.242 116.597 C 176.568 172.762, 176.794 180.143, 178.351 185.500 C 182.803 200.823, 189.570 209.623, 201.224 215.248 C 211.218 220.072, 218.698 221.408, 231.769 220.702 C 250.426 219.694, 263.891 213.933, 277.130 201.294 L 280.759 197.829 281.823 202.664 C 282.407 205.324, 283.164 209.636, 283.503 212.246 C 284.234 217.855, 285.090 218.251, 295.521 217.801 L 302.500 217.500 302.169 155.500 C 301.987 121.400, 301.537 84.275, 301.169 73 L 300.500 52.500 290 52.500 L 279.500 52.500 279 114.528 L 278.500 176.555 273.500 182.418 C 267.827 189.070, 259.314 195.030, 251.687 197.691 C 243.722 200.469, 223.177 200.275, 216.878 197.363 C 210.261 194.303, 204.605 188.794, 201.870 182.742 L 199.500 177.500 198.948 115 C 198.645 80.625, 198.308 52.388, 198.198 52.250 C 197.664 51.577, 178.327 52.141, 177.188 52.862 M 816.250 52.662 C 814.226 53.479, 814.474 169.721, 816.525 181.483 C 818.476 192.669, 822.096 200.056, 829.020 206.980 C 839.351 217.312, 852.161 221.509, 871 220.736 C 889.073 219.995, 901.559 215.022, 913.581 203.776 L 919.889 197.874 920.878 201.687 C 921.421 203.784, 922.167 208.036, 922.534 211.136 C 923.191 216.683, 923.259 216.781, 926.851 217.375 C 928.858 217.706, 933.155 217.983, 936.401 217.989 L 942.302 218 941.644 153.250 C 941.282 117.638, 940.699 80.273, 940.349 70.218 L 939.713 51.935 929.107 52.218 L 918.500 52.500 918.242 114.567 L 917.985 176.634 910.742 184.188 C 899.862 195.537, 889.320 200, 873.395 200 C 857.415 200, 846.831 194.466, 841.311 183.224 L 838.500 177.500 837.960 115 C 837.663 80.625, 837.325 52.388, 837.210 52.250 C 836.814 51.778, 817.500 52.158, 816.250 52.662" stroke="none" fill="#ffffff" fill-rule="evenodd"/></svg>